<svg width="61" height="60" viewBox="0 0 61 60" fill="none" xmlns="http://www.w3.org/2000/svg">
<g clip-path="url(#clip0_191_442)">
<path d="M54.625 13.7001C55.1223 13.7001 55.5992 13.9161 55.9508 14.3005C56.3025 14.685 56.5 15.2064 56.5 15.7501V52.6501C56.5 53.1938 56.3025 53.7152 55.9508 54.0997C55.5992 54.4841 55.1223 54.7001 54.625 54.7001H5.875C5.37772 54.7001 4.90081 54.4841 4.54917 54.0997C4.19754 53.7152 4 53.1938 4 52.6501V15.7501C4 15.2064 4.19754 14.685 4.54917 14.3005C4.90081 13.9161 5.37772 13.7001 5.875 13.7001H54.625ZM5.875 9.6001C4.38316 9.6001 2.95242 10.248 1.89752 11.4014C0.842632 12.5547 0.25 14.119 0.25 15.7501L0.25 52.6501C0.25 54.2812 0.842632 55.8455 1.89752 56.9988C2.95242 58.1522 4.38316 58.8001 5.875 58.8001H54.625C56.1168 58.8001 57.5476 58.1522 58.6025 56.9988C59.6574 55.8455 60.25 54.2812 60.25 52.6501V15.7501C60.25 14.119 59.6574 12.5547 58.6025 11.4014C57.5476 10.248 56.1168 9.6001 54.625 9.6001H5.875Z" fill="white"/>
<path d="M19 34.1999C19 33.6562 19.1975 33.1348 19.5492 32.7503C19.9008 32.3659 20.3777 32.1499 20.875 32.1499H47.125C47.6223 32.1499 48.0992 32.3659 48.4508 32.7503C48.8025 33.1348 49 33.6562 49 34.1999C49 34.7436 48.8025 35.265 48.4508 35.6495C48.0992 36.0339 47.6223 36.2499 47.125 36.2499H20.875C20.3777 36.2499 19.9008 36.0339 19.5492 35.6495C19.1975 35.265 19 34.7436 19 34.1999ZM19 23.9499C19 23.4062 19.1975 22.8848 19.5492 22.5003C19.9008 22.1159 20.3777 21.8999 20.875 21.8999H47.125C47.6223 21.8999 48.0992 22.1159 48.4508 22.5003C48.8025 22.8848 49 23.4062 49 23.9499C49 24.4936 48.8025 25.015 48.4508 25.3995C48.0992 25.7839 47.6223 25.9999 47.125 25.9999H20.875C20.3777 25.9999 19.9008 25.7839 19.5492 25.3995C19.1975 25.015 19 24.4936 19 23.9499ZM19 44.4499C19 43.9062 19.1975 43.3848 19.5492 43.0003C19.9008 42.6159 20.3777 42.3999 20.875 42.3999H47.125C47.6223 42.3999 48.0992 42.6159 48.4508 43.0003C48.8025 43.3848 49 43.9062 49 44.4499C49 44.9936 48.8025 45.515 48.4508 45.8995C48.0992 46.2839 47.6223 46.4999 47.125 46.4999H20.875C20.3777 46.4999 19.9008 46.2839 19.5492 45.8995C19.1975 45.515 19 44.9936 19 44.4499ZM15.25 23.9499C15.25 24.4936 15.0525 25.015 14.7008 25.3995C14.3492 25.7839 13.8723 25.9999 13.375 25.9999C12.8777 25.9999 12.4008 25.7839 12.0492 25.3995C11.6975 25.015 11.5 24.4936 11.5 23.9499C11.5 23.4062 11.6975 22.8848 12.0492 22.5003C12.4008 22.1159 12.8777 21.8999 13.375 21.8999C13.8723 21.8999 14.3492 22.1159 14.7008 22.5003C15.0525 22.8848 15.25 23.4062 15.25 23.9499ZM15.25 34.1999C15.25 34.7436 15.0525 35.265 14.7008 35.6495C14.3492 36.0339 13.8723 36.2499 13.375 36.2499C12.8777 36.2499 12.4008 36.0339 12.0492 35.6495C11.6975 35.265 11.5 34.7436 11.5 34.1999C11.5 33.6562 11.6975 33.1348 12.0492 32.7503C12.4008 32.3659 12.8777 32.1499 13.375 32.1499C13.8723 32.1499 14.3492 32.3659 14.7008 32.7503C15.0525 33.1348 15.25 33.6562 15.25 34.1999ZM15.25 44.4499C15.25 44.9936 15.0525 45.515 14.7008 45.8995C14.3492 46.2839 13.8723 46.4999 13.375 46.4999C12.8777 46.4999 12.4008 46.2839 12.0492 45.8995C11.6975 45.515 11.5 44.9936 11.5 44.4499C11.5 43.9062 11.6975 43.3848 12.0492 43.0003C12.4008 42.6159 12.8777 42.3999 13.375 42.3999C13.8723 42.3999 14.3492 42.6159 14.7008 43.0003C15.0525 43.3848 15.25 43.9062 15.25 44.4499Z" fill="white"/>
</g>
<defs>
<clipPath id="clip0_191_442">
<rect width="60" height="60" fill="white" transform="translate(0.25)"/>
</clipPath>
</defs>
</svg>
