<svg width="77" height="76" viewBox="0 0 77 76" fill="none" xmlns="http://www.w3.org/2000/svg">
<path d="M50.917 32.219C56.1737 32.219 60.3853 27.7063 60.3853 22.1159C60.3853 16.5254 56.1737 12.0127 50.917 12.0127C45.6603 12.0127 41.417 16.5254 41.417 22.1159C41.417 27.7063 45.6603 32.219 50.917 32.219ZM25.5837 32.219C30.8403 32.219 35.052 27.7063 35.052 22.1159C35.052 16.5254 30.8403 12.0127 25.5837 12.0127C20.327 12.0127 16.0837 16.5254 16.0837 22.1159C16.0837 27.7063 20.327 32.219 25.5837 32.219ZM25.5837 38.9545C18.2053 38.9545 3.41699 42.8947 3.41699 50.7415V59.1608H47.7503V50.7415C47.7503 42.8947 32.962 38.9545 25.5837 38.9545ZM50.917 38.9545C49.9987 38.9545 48.9537 39.0219 47.8453 39.1229C51.5187 41.9518 54.0837 45.7573 54.0837 50.7415V59.1608H73.0837V50.7415C73.0837 42.8947 58.2953 38.9545 50.917 38.9545Z" fill="#FFE200"/>
</svg>
