<svg width="61" height="60" viewBox="0 0 61 60" fill="none" xmlns="http://www.w3.org/2000/svg">
<path d="M28.25 30C25.5 30 23.1458 29.0208 21.1875 27.0625C19.2292 25.1042 18.25 22.75 18.25 20C18.25 17.25 19.2292 14.8958 21.1875 12.9375C23.1458 10.9792 25.5 10 28.25 10C31 10 33.3542 10.9792 35.3125 12.9375C37.2708 14.8958 38.25 17.25 38.25 20C38.25 22.75 37.2708 25.1042 35.3125 27.0625C33.3542 29.0208 31 30 28.25 30ZM56 58.75L48 50.75C47.125 51.25 46.1875 51.6667 45.1875 52C44.1875 52.3333 43.125 52.5 42 52.5C38.875 52.5 36.2192 51.4058 34.0325 49.2175C31.8458 47.0292 30.7517 44.3733 30.75 41.25C30.75 38.125 31.8442 35.4683 34.0325 33.28C36.2208 31.0917 38.8767 29.9983 42 30C45.125 30 47.7817 31.0942 49.97 33.2825C52.1583 35.4708 53.2517 38.1267 53.25 41.25C53.25 42.375 53.0833 43.4375 52.75 44.4375C52.4167 45.4375 52 46.375 51.5 47.25L59.5 55.25L56 58.75ZM42 47.5C43.75 47.5 45.2292 46.8958 46.4375 45.6875C47.6458 44.4792 48.25 43 48.25 41.25C48.25 39.5 47.6458 38.0208 46.4375 36.8125C45.2292 35.6042 43.75 35 42 35C40.25 35 38.7708 35.6042 37.5625 36.8125C36.3542 38.0208 35.75 39.5 35.75 41.25C35.75 43 36.3542 44.4792 37.5625 45.6875C38.7708 46.8958 40.25 47.5 42 47.5ZM28.3125 32.5C26.5625 35.0833 25.6875 38 25.6875 41.25C25.6875 44.5 26.5625 47.4167 28.3125 50H8.25V43.0625C8.25 41.6458 8.60417 40.3333 9.3125 39.125C10.0208 37.9167 11 37 12.25 36.375C14.375 35.2917 16.7708 34.375 19.4375 33.625C22.1042 32.875 25.0625 32.5 28.3125 32.5Z" fill="white"/>
</svg>
