<svg width="63" height="62" viewBox="0 0 63 62" fill="none" xmlns="http://www.w3.org/2000/svg">
<path d="M44.45 42.4767H39.55V47.9212H44.45M44.45 31.5878H39.55V37.0323H44.45M49.35 53.3656H29.75V47.9212H34.65V42.4767H29.75V37.0323H34.65V31.5878H29.75V26.1434H49.35M24.85 20.6989H19.95V15.2545H24.85M24.85 31.5878H19.95V26.1434H24.85M24.85 42.4767H19.95V37.0323H24.85M24.85 53.3656H19.95V47.9212H24.85M15.05 20.6989H10.15V15.2545H15.05M15.05 31.5878H10.15V26.1434H15.05M15.05 42.4767H10.15V37.0323H15.05M15.05 53.3656H10.15V47.9212H15.05M29.75 20.6989V9.81006H5.25V58.8101H54.25V20.6989H29.75Z" fill="#FFE200"/>
</svg>
