<svg width="68" height="67" viewBox="0 0 68 67" fill="none" xmlns="http://www.w3.org/2000/svg">
<path d="M54.961 17.7468L32.3458 9.91061C31.9589 9.77654 31.5407 9.77654 31.1538 9.91061L8.53859 17.7468C8.16334 17.8769 7.83695 18.1263 7.60568 18.4599C7.37441 18.7935 7.24997 19.1943 7.25 19.6055V39.196C7.25 39.7156 7.44856 40.2139 7.80199 40.5813C8.15542 40.9487 8.63477 41.1551 9.1346 41.1551C9.63443 41.1551 10.1138 40.9487 10.4672 40.5813C10.8206 40.2139 11.0192 39.7156 11.0192 39.196V22.3237L18.9322 25.0639C16.8298 28.5946 16.1612 32.8483 17.0733 36.891C17.9854 40.9336 20.4035 44.4348 23.7968 46.6257C19.5564 48.3546 15.8909 51.4818 13.21 55.7574C13.0706 55.9728 12.9738 56.2149 12.9251 56.4695C12.8765 56.7242 12.8771 56.9863 12.9267 57.2408C12.9764 57.4952 13.0743 57.7368 13.2146 57.9516C13.3549 58.1664 13.5349 58.35 13.7441 58.4919C13.9533 58.6337 14.1875 58.7309 14.4332 58.7778C14.6788 58.8247 14.931 58.8204 15.175 58.7651C15.419 58.7098 15.6501 58.6047 15.8547 58.4557C16.0592 58.3068 16.2333 58.1171 16.3667 57.8977C19.9169 52.236 25.5235 48.9913 31.7498 48.9913C37.976 48.9913 43.5827 52.236 47.1328 57.8977C47.4092 58.3247 47.8362 58.6215 48.3215 58.7239C48.8068 58.8263 49.3113 58.7261 49.726 58.4449C50.1408 58.1637 50.4324 57.7242 50.5378 57.2213C50.6433 56.7183 50.5541 56.1925 50.2895 55.7574C47.6087 51.4818 43.929 48.3546 39.7028 46.6257C43.0928 44.4349 45.5086 40.936 46.4206 36.8963C47.3325 32.8566 46.6661 28.6058 44.5674 25.0761L54.961 21.4764C55.3363 21.3464 55.6628 21.097 55.8942 20.7634C56.1255 20.4298 56.25 20.029 56.25 19.6177C56.25 19.2065 56.1255 18.8057 55.8942 18.4721C55.6628 18.1385 55.3363 17.889 54.961 17.7591V17.7468ZM43.0574 33.3189C43.0579 35.1772 42.6345 37.0091 41.8221 38.6644C41.0096 40.3197 39.8311 41.7511 38.3834 42.8413C36.9357 43.9315 35.2599 44.6493 33.4936 44.9359C31.7274 45.2225 29.9209 45.0697 28.2224 44.49C26.5239 43.9103 24.9819 42.9202 23.7228 41.6011C22.4637 40.2819 21.5234 38.6712 20.9791 36.9012C20.4348 35.1311 20.302 33.2521 20.5915 31.4183C20.8811 29.5846 21.5847 27.8483 22.6448 26.352L31.1538 29.2906C31.5407 29.4246 31.9589 29.4246 32.3458 29.2906L40.8548 26.352C42.2866 28.3698 43.0585 30.8115 43.0574 33.3189Z" fill="#FFE200"/>
</svg>
