<svg width="50" height="50" viewBox="0 0 50 50" fill="none" xmlns="http://www.w3.org/2000/svg">
<path d="M47.961 8.74683L25.3458 0.910605C24.9589 0.776543 24.5407 0.776543 24.1538 0.910605L1.53859 8.74683C1.16334 8.87686 0.836952 9.12635 0.605679 9.45993C0.374406 9.79352 0.249971 10.1943 0.25 10.6055V30.196C0.25 30.7156 0.448555 31.2139 0.801986 31.5813C1.15542 31.9487 1.63477 32.1551 2.1346 32.1551C2.63443 32.1551 3.11378 31.9487 3.46721 31.5813C3.82064 31.2139 4.0192 30.7156 4.0192 30.196V13.3237L11.9322 16.0639C9.82979 19.5946 9.16125 23.8483 10.0733 27.891C10.9854 31.9336 13.4035 35.4348 16.7968 37.6257C12.5564 39.3546 8.89089 42.4818 6.21004 46.7574C6.07062 46.9728 5.97378 47.2149 5.92514 47.4695C5.87651 47.7242 5.87705 47.9863 5.92675 48.2408C5.97644 48.4952 6.07429 48.7368 6.2146 48.9516C6.35492 49.1664 6.53491 49.35 6.7441 49.4919C6.95329 49.6337 7.18752 49.7309 7.43317 49.7778C7.67882 49.8247 7.93098 49.8204 8.17501 49.7651C8.41904 49.7098 8.65006 49.6047 8.85465 49.4557C9.05924 49.3068 9.23331 49.1171 9.36675 48.8977C12.9169 43.236 18.5235 39.9913 24.7498 39.9913C30.976 39.9913 36.5827 43.236 40.1328 48.8977C40.4092 49.3247 40.8362 49.6215 41.3215 49.7239C41.8068 49.8263 42.3113 49.7261 42.726 49.4449C43.1408 49.1637 43.4324 48.7242 43.5378 48.2213C43.6433 47.7183 43.5541 47.1925 43.2895 46.7574C40.6087 42.4818 36.929 39.3546 32.7028 37.6257C36.0928 35.4349 38.5086 31.936 39.4206 27.8963C40.3325 23.8566 39.6661 19.6058 37.5674 16.0761L47.961 12.4764C48.3363 12.3464 48.6628 12.097 48.8942 11.7634C49.1255 11.4298 49.25 11.029 49.25 10.6177C49.25 10.2065 49.1255 9.80567 48.8942 9.47208C48.6628 9.13848 48.3363 8.88903 47.961 8.75907V8.74683ZM36.0574 24.3189C36.0579 26.1772 35.6345 28.0091 34.8221 29.6644C34.0096 31.3197 32.8311 32.7511 31.3834 33.8413C29.9357 34.9315 28.2599 35.6493 26.4936 35.9359C24.7274 36.2225 22.9209 36.0697 21.2224 35.49C19.5239 34.9103 17.9819 33.9202 16.7228 32.6011C15.4637 31.2819 14.5234 29.6712 13.9791 27.9012C13.4348 26.1311 13.302 24.2521 13.5915 22.4183C13.8811 20.5846 14.5847 18.8483 15.6448 17.352L24.1538 20.2906C24.5407 20.4246 24.9589 20.4246 25.3458 20.2906L33.8548 17.352C35.2866 19.3698 36.0585 21.8115 36.0574 24.3189Z" fill="white"/>
</svg>
