<svg width="25" height="24" viewBox="0 0 25 24" fill="none" xmlns="http://www.w3.org/2000/svg">
<path fill-rule="evenodd" clip-rule="evenodd" d="M9.42442 16.0949C9.56504 15.9545 9.75567 15.8756 9.95442 15.8756C10.1532 15.8756 10.3438 15.9545 10.4844 16.0949L12.2044 17.8149V9.62493C12.2044 9.42601 12.2834 9.23525 12.4241 9.0946C12.5647 8.95395 12.7555 8.87493 12.9544 8.87493C13.1533 8.87493 13.3441 8.95395 13.4847 9.0946C13.6254 9.23525 13.7044 9.42601 13.7044 9.62493V17.8149L15.4244 16.0949C15.4931 16.0212 15.5759 15.9621 15.6679 15.9211C15.7599 15.8802 15.8592 15.8581 15.9599 15.8563C16.0606 15.8546 16.1606 15.8731 16.254 15.9108C16.3474 15.9485 16.4322 16.0047 16.5035 16.0759C16.5747 16.1471 16.6308 16.2319 16.6685 16.3253C16.7063 16.4187 16.7248 16.5187 16.723 16.6195C16.7212 16.7202 16.6992 16.8195 16.6582 16.9115C16.6172 17.0035 16.5581 17.0863 16.4844 17.1549L13.4844 20.1549C13.3438 20.2954 13.1532 20.3743 12.9544 20.3743C12.7557 20.3743 12.565 20.2954 12.4244 20.1549L9.42442 17.1549C9.28397 17.0143 9.20508 16.8237 9.20508 16.6249C9.20508 16.4262 9.28397 16.2356 9.42442 16.0949Z" fill="#9C9C9C"/>
<path d="M12.9551 3.625C15.0768 3.625 17.1116 4.46785 18.6119 5.96815C20.1122 7.46844 20.9551 9.50327 20.9551 11.625H17.2051C16.2621 11.625 15.7911 11.625 15.4981 11.332C15.2051 11.039 15.2051 10.568 15.2051 9.625C15.2051 9.02826 14.968 8.45597 14.5461 8.03401C14.1241 7.61205 13.5518 7.375 12.9551 7.375C12.3583 7.375 11.786 7.61205 11.3641 8.03401C10.9421 8.45597 10.7051 9.02826 10.7051 9.625C10.7051 10.568 10.7051 11.039 10.4121 11.332C10.1191 11.625 9.64808 11.625 8.70508 11.625H4.95508C4.95508 9.50327 5.79793 7.46844 7.29822 5.96815C8.79851 4.46785 10.8333 3.625 12.9551 3.625Z" fill="#9C9C9C"/>
</svg>
