<svg width="24" height="24" viewBox="0 0 24 24" fill="none" xmlns="http://www.w3.org/2000/svg">
<path fill-rule="evenodd" clip-rule="evenodd" d="M8.84434 16.095C8.98497 15.9546 9.17559 15.8757 9.37434 15.8757C9.57309 15.8757 9.76371 15.9546 9.90434 16.095L11.6243 17.815V9.62505C11.6243 9.42614 11.7034 9.23537 11.844 9.09472C11.9847 8.95407 12.1754 8.87505 12.3743 8.87505C12.5733 8.87505 12.764 8.95407 12.9047 9.09472C13.0453 9.23537 13.1243 9.42614 13.1243 9.62505V17.815L14.8443 16.095C14.913 16.0214 14.9958 15.9623 15.0878 15.9213C15.1798 15.8803 15.2791 15.8582 15.3798 15.8565C15.4805 15.8547 15.5806 15.8732 15.6739 15.9109C15.7673 15.9486 15.8522 16.0048 15.9234 16.076C15.9946 16.1472 16.0507 16.2321 16.0885 16.3255C16.1262 16.4188 16.1447 16.5189 16.1429 16.6196C16.1412 16.7203 16.1191 16.8196 16.0781 16.9116C16.0371 17.0036 15.978 17.0864 15.9043 17.1551L12.9043 20.155C12.7637 20.2955 12.5731 20.3744 12.3743 20.3744C12.1756 20.3744 11.985 20.2955 11.8443 20.155L8.84434 17.1551C8.70389 17.0144 8.625 16.8238 8.625 16.625C8.625 16.4263 8.70389 16.2357 8.84434 16.095Z" fill="#00B0D9"/>
<path d="M12.375 3.625C14.4967 3.625 16.5316 4.46785 18.0319 5.96815C19.5321 7.46844 20.375 9.50327 20.375 11.625H16.625C15.682 11.625 15.211 11.625 14.918 11.332C14.625 11.039 14.625 10.568 14.625 9.625C14.625 9.02826 14.3879 8.45597 13.966 8.03401C13.544 7.61205 12.9717 7.375 12.375 7.375C11.7783 7.375 11.206 7.61205 10.784 8.03401C10.3621 8.45597 10.125 9.02826 10.125 9.625C10.125 10.568 10.125 11.039 9.832 11.332C9.539 11.625 9.068 11.625 8.125 11.625H4.375C4.375 9.50327 5.21785 7.46844 6.71815 5.96815C8.21844 4.46785 10.2533 3.625 12.375 3.625Z" fill="#00B0D9"/>
</svg>
