<svg width="22" height="18" viewBox="0 0 22 18" fill="none" xmlns="http://www.w3.org/2000/svg">
<path d="M20.5831 0.75H1.49383C0.685417 0.75 0 1.40767 0 2.21608V15.8053C0 16.6154 0.67175 17.25 1.49383 17.25H20.5831C21.3932 17.25 22 16.6154 22 15.8053V2.21608C22 1.394 21.3932 0.75 20.5831 0.75ZM5.01883 1.58542C5.315 1.58542 5.55583 1.82633 5.55583 2.12242C5.55583 2.4185 5.31492 2.65942 5.01883 2.65942C4.72275 2.65942 4.48183 2.4185 4.48183 2.12242C4.48183 1.82633 4.72267 1.58542 5.01883 1.58542ZM3.47717 1.58542C3.77333 1.58542 4.01417 1.82633 4.01417 2.12242C4.01417 2.4185 3.77325 2.65942 3.47717 2.65942C3.18108 2.65942 2.94017 2.4185 2.94017 2.12242C2.94017 1.82633 3.181 1.58542 3.47717 1.58542ZM1.9355 1.58542C2.23167 1.58542 2.4725 1.82633 2.4725 2.12242C2.4725 2.4185 2.23158 2.65942 1.9355 2.65942C1.63942 2.65942 1.3985 2.4185 1.3985 2.12242C1.3985 1.82633 1.63933 1.58542 1.9355 1.58542ZM20.6667 15.875C20.6667 15.898 20.6758 15.9167 20.6528 15.9167H20.6111H1.40275H1.33333V15.875V3.58333V3.54167C1.33333 3.51867 1.37975 3.5 1.40275 3.5H20.6528C20.6758 3.5 20.6667 3.51867 20.6667 3.54167V15.875ZM20.1574 2.66667H14.3241C14.0279 2.66667 13.7871 2.42417 13.7871 2.12608C13.7871 1.828 14.028 1.5855 14.3241 1.5855L20.1574 1.58733C20.4536 1.58733 20.6944 1.829 20.6944 2.12617C20.6944 2.42417 20.4535 2.66667 20.1574 2.66667Z" fill="black"/>
<path d="M3.32411 6.83335H9.15744C9.45361 6.83335 9.69444 6.5906 9.69444 6.29218C9.69444 5.99501 9.45353 5.7531 9.15744 5.7531L3.32411 5.7511C3.02794 5.7511 2.78711 5.99385 2.78711 6.29218C2.78703 6.5906 3.02794 6.83335 3.32411 6.83335Z" fill="black"/>
<path d="M9.15744 7.58647L3.32411 7.58447C3.02794 7.58447 2.78711 7.82722 2.78711 8.12556C2.78711 8.42397 3.02803 8.66672 3.32411 8.66672H9.15744C9.45361 8.66672 9.69444 8.42397 9.69444 8.12556C9.69444 7.82831 9.45353 7.58647 9.15744 7.58647Z" fill="black"/>
<path d="M9.15744 9.41972L3.32411 9.41772C3.02794 9.41772 2.78711 9.66047 2.78711 9.95881C2.78711 10.2572 3.02803 10.5 3.32411 10.5H9.15744C9.45361 10.5 9.69444 10.2572 9.69444 9.95881C9.69444 9.66156 9.45353 9.41972 9.15744 9.41972Z" fill="black"/>
<path d="M9.15744 11.2531L3.32411 11.2511C3.02794 11.2511 2.78711 11.4938 2.78711 11.7922C2.78711 12.0906 3.02803 12.3333 3.32411 12.3333H9.15744C9.45361 12.3333 9.69444 12.0906 9.69444 11.7922C9.69444 11.4949 9.45353 11.2531 9.15744 11.2531Z" fill="black"/>
<path d="M18.2361 5.58337H12.0694C11.495 5.58337 11 6.05062 11 6.62504V6.66671V12.7917V12.8334C11 13.3856 11.4755 13.8334 12.0277 13.8334H12.0694H18.1944H18.2361C18.8105 13.8334 19.25 13.3661 19.25 12.7917V6.62504C19.25 6.05062 18.8105 5.58337 18.2361 5.58337Z" fill="black"/>
</svg>
