<svg width="22" height="22" viewBox="0 0 22 22" fill="none" xmlns="http://www.w3.org/2000/svg">
<g clip-path="url(#clip0_179_20975)">
<path d="M20.5831 2.75H1.49383C0.685417 2.75 0 3.40767 0 4.21608V17.8053C0 18.6154 0.67175 19.25 1.49383 19.25H20.5831C21.3932 19.25 22 18.6154 22 17.8053V4.21608C22 3.394 21.3932 2.75 20.5831 2.75ZM5.01883 3.58542C5.315 3.58542 5.55583 3.82633 5.55583 4.12242C5.55583 4.4185 5.31492 4.65942 5.01883 4.65942C4.72275 4.65942 4.48183 4.4185 4.48183 4.12242C4.48183 3.82633 4.72267 3.58542 5.01883 3.58542ZM3.47717 3.58542C3.77333 3.58542 4.01417 3.82633 4.01417 4.12242C4.01417 4.4185 3.77325 4.65942 3.47717 4.65942C3.18108 4.65942 2.94017 4.4185 2.94017 4.12242C2.94017 3.82633 3.181 3.58542 3.47717 3.58542ZM1.9355 3.58542C2.23167 3.58542 2.4725 3.82633 2.4725 4.12242C2.4725 4.4185 2.23158 4.65942 1.9355 4.65942C1.63942 4.65942 1.3985 4.4185 1.3985 4.12242C1.3985 3.82633 1.63933 3.58542 1.9355 3.58542ZM20.6667 17.875C20.6667 17.898 20.6758 17.9167 20.6528 17.9167H20.6111H1.40275H1.33333V17.875V5.58333V5.54167C1.33333 5.51867 1.37975 5.5 1.40275 5.5H20.6528C20.6758 5.5 20.6667 5.51867 20.6667 5.54167V17.875ZM20.1574 4.66667H14.3241C14.0279 4.66667 13.7871 4.42417 13.7871 4.12608C13.7871 3.828 14.028 3.5855 14.3241 3.5855L20.1574 3.58733C20.4536 3.58733 20.6944 3.829 20.6944 4.12617C20.6944 4.42417 20.4535 4.66667 20.1574 4.66667Z" fill="#00B0D9"/>
<path d="M3.32411 8.83335H9.15744C9.45361 8.83335 9.69444 8.5906 9.69444 8.29218C9.69444 7.99501 9.45353 7.7531 9.15744 7.7531L3.32411 7.7511C3.02794 7.7511 2.78711 7.99385 2.78711 8.29218C2.78703 8.5906 3.02794 8.83335 3.32411 8.83335Z" fill="#00B0D9"/>
<path d="M9.15744 9.58647L3.32411 9.58447C3.02794 9.58447 2.78711 9.82722 2.78711 10.1256C2.78711 10.424 3.02803 10.6667 3.32411 10.6667H9.15744C9.45361 10.6667 9.69444 10.424 9.69444 10.1256C9.69444 9.82831 9.45353 9.58647 9.15744 9.58647Z" fill="#00B0D9"/>
<path d="M9.15744 11.4197L3.32411 11.4177C3.02794 11.4177 2.78711 11.6605 2.78711 11.9588C2.78711 12.2572 3.02803 12.5 3.32411 12.5H9.15744C9.45361 12.5 9.69444 12.2572 9.69444 11.9588C9.69444 11.6616 9.45353 11.4197 9.15744 11.4197Z" fill="#00B0D9"/>
<path d="M9.15744 13.2531L3.32411 13.2511C3.02794 13.2511 2.78711 13.4938 2.78711 13.7922C2.78711 14.0906 3.02803 14.3333 3.32411 14.3333H9.15744C9.45361 14.3333 9.69444 14.0906 9.69444 13.7922C9.69444 13.4949 9.45353 13.2531 9.15744 13.2531Z" fill="#00B0D9"/>
<path d="M18.2361 7.58337H12.0694C11.495 7.58337 11 8.05062 11 8.62504V8.66671V14.7917V14.8334C11 15.3856 11.4755 15.8334 12.0277 15.8334H12.0694H18.1944H18.2361C18.8105 15.8334 19.25 15.3661 19.25 14.7917V8.62504C19.25 8.05062 18.8105 7.58337 18.2361 7.58337Z" fill="#00B0D9"/>
</g>
<defs>
<clipPath id="clip0_179_20975">
<rect width="22" height="22" fill="white"/>
</clipPath>
</defs>
</svg>
