<svg width="32" height="32" viewBox="0 0 32 32" fill="none" xmlns="http://www.w3.org/2000/svg">
<path d="M4 23.2798V27.3332C4 27.7065 4.29333 27.9998 4.66667 27.9998H8.72C8.89333 27.9998 9.06667 27.9332 9.18667 27.7998L23.7467 13.2532L18.7467 8.25317L4.2 22.7998C4.06667 22.9332 4 23.0932 4 23.2798ZM27.6133 9.38651C27.7369 9.26316 27.835 9.11664 27.9019 8.95534C27.9688 8.79404 28.0033 8.62113 28.0033 8.44651C28.0033 8.27188 27.9688 8.09897 27.9019 7.93768C27.835 7.77638 27.7369 7.62986 27.6133 7.50651L24.4933 4.38651C24.37 4.2629 24.2235 4.16484 24.0622 4.09793C23.9009 4.03102 23.728 3.99658 23.5533 3.99658C23.3787 3.99658 23.2058 4.03102 23.0445 4.09793C22.8832 4.16484 22.7367 4.2629 22.6133 4.38651L20.1733 6.82651L25.1733 11.8265L27.6133 9.38651Z" fill="#00B0D9" fill-opacity="0.5"/>
</svg>
