<svg width="24" height="24" viewBox="0 0 24 24" fill="none" xmlns="http://www.w3.org/2000/svg">
<path fill-rule="evenodd" clip-rule="evenodd" d="M8.84434 7.90495C8.98497 8.0454 9.17559 8.12429 9.37434 8.12429C9.57309 8.12429 9.76371 8.0454 9.90434 7.90495L11.6243 6.18495V14.3749C11.6243 14.5739 11.7034 14.7646 11.844 14.9053C11.9847 15.0459 12.1754 15.1249 12.3743 15.1249C12.5733 15.1249 12.764 15.0459 12.9047 14.9053C13.0453 14.7646 13.1243 14.5739 13.1243 14.3749V6.18495L14.8443 7.90495C14.913 7.97864 14.9958 8.03774 15.0878 8.07873C15.1798 8.11972 15.2791 8.14177 15.3798 8.14354C15.4805 8.14532 15.5806 8.12679 15.6739 8.08907C15.7673 8.05135 15.8522 7.99521 15.9234 7.92399C15.9946 7.85277 16.0507 7.76794 16.0885 7.67455C16.1262 7.58116 16.1447 7.48113 16.1429 7.38043C16.1412 7.27972 16.1191 7.18041 16.0781 7.08841C16.0371 6.99641 15.978 6.91361 15.9043 6.84495L12.9043 3.84495C12.7637 3.7045 12.5731 3.62561 12.3743 3.62561C12.1756 3.62561 11.985 3.7045 11.8443 3.84495L8.84434 6.84495C8.70389 6.98558 8.625 7.1762 8.625 7.37495C8.625 7.5737 8.70389 7.76433 8.84434 7.90495Z" fill="#00B0D9"/>
<path d="M12.375 20.375C14.4967 20.375 16.5316 19.5321 18.0319 18.0319C19.5321 16.5316 20.375 14.4967 20.375 12.375H16.625C15.682 12.375 15.211 12.375 14.918 12.668C14.625 12.961 14.625 13.432 14.625 14.375C14.625 14.9717 14.3879 15.544 13.966 15.966C13.544 16.3879 12.9717 16.625 12.375 16.625C11.7783 16.625 11.206 16.3879 10.784 15.966C10.3621 15.544 10.125 14.9717 10.125 14.375C10.125 13.432 10.125 12.961 9.832 12.668C9.539 12.375 9.068 12.375 8.125 12.375H4.375C4.375 14.4967 5.21785 16.5316 6.71815 18.0319C8.21844 19.5321 10.2533 20.375 12.375 20.375Z" fill="#00B0D9"/>
</svg>
