<svg width="25" height="24" viewBox="0 0 25 24" fill="none" xmlns="http://www.w3.org/2000/svg">
<path fill-rule="evenodd" clip-rule="evenodd" d="M9.42442 7.90507C9.56504 8.04552 9.75567 8.12441 9.95442 8.12441C10.1532 8.12441 10.3438 8.04552 10.4844 7.90507L12.2044 6.18507V14.3751C12.2044 14.574 12.2834 14.7647 12.4241 14.9054C12.5647 15.0461 12.7555 15.1251 12.9544 15.1251C13.1533 15.1251 13.3441 15.0461 13.4847 14.9054C13.6254 14.7647 13.7044 14.574 13.7044 14.3751V6.18507L15.4244 7.90507C15.4931 7.97876 15.5759 8.03786 15.6679 8.07885C15.7599 8.11985 15.8592 8.14189 15.9599 8.14366C16.0606 8.14544 16.1606 8.12692 16.254 8.0892C16.3474 8.05147 16.4322 7.99533 16.5035 7.92411C16.5747 7.85289 16.6308 7.76806 16.6685 7.67467C16.7063 7.58128 16.7248 7.48125 16.723 7.38055C16.7212 7.27985 16.6992 7.18053 16.6582 7.08853C16.6172 6.99654 16.5581 6.91373 16.4844 6.84507L13.4844 3.84507C13.3438 3.70462 13.1532 3.62573 12.9544 3.62573C12.7557 3.62573 12.565 3.70462 12.4244 3.84507L9.42442 6.84507C9.28397 6.9857 9.20508 7.17632 9.20508 7.37507C9.20508 7.57382 9.28397 7.76445 9.42442 7.90507Z" fill="#9C9C9C"/>
<path d="M12.9551 20.375C15.0768 20.375 17.1116 19.5321 18.6119 18.0319C20.1122 16.5316 20.9551 14.4967 20.9551 12.375H17.2051C16.2621 12.375 15.7911 12.375 15.4981 12.668C15.2051 12.961 15.2051 13.432 15.2051 14.375C15.2051 14.9717 14.968 15.544 14.5461 15.966C14.1241 16.3879 13.5518 16.625 12.9551 16.625C12.3583 16.625 11.786 16.3879 11.3641 15.966C10.9421 15.544 10.7051 14.9717 10.7051 14.375C10.7051 13.432 10.7051 12.961 10.4121 12.668C10.1191 12.375 9.64808 12.375 8.70508 12.375H4.95508C4.95508 14.4967 5.79793 16.5316 7.29822 18.0319C8.79851 19.5321 10.8333 20.375 12.9551 20.375Z" fill="#9C9C9C"/>
</svg>
